<?xml version="1.0" encoding="utf-8"?>
<!-- Generator: Adobe Illustrator 25.2.1, SVG Export Plug-In . SVG Version: 6.00 Build 0)  -->
<svg version="1.1" id="Слой_1" xmlns="http://www.w3.org/2000/svg" xmlns:xlink="http://www.w3.org/1999/xlink" x="0px" y="0px"
	 viewBox="0 0 296 362" style="enable-background:new 0 0 296 362;" xml:space="preserve">
<style type="text/css">
	.st0{fill:#E16162;}
	.st1{fill:none;}
	.st2{fill:#FCF6B7;}
	.st3{fill:none;stroke:#F3D3C5;stroke-width:1.6832;stroke-miterlimit:10;}
	.st4{fill:#389679;}
	.st5{fill:#F58A6C;}
	.st6{fill:#F3D3C5;}
	.st7{fill:#38598B;}
	.st8{fill:#FCF0E2;}
	.st9{fill:none;stroke:#F58A6C;stroke-width:1.6832;stroke-miterlimit:10;}
	.st10{fill:none;stroke:#E16162;stroke-width:1.6832;stroke-miterlimit:10;}
</style>
<path class="st0" d="M137.7,165.8c-3-0.2-6.2-0.1-9,1c-3.8,1.5-6.6,4.7-9.1,8c-16.1,21.3-22.8,48.8-40.3,68.9
	c-6.8,7.8-15.1,14.3-21.6,22.5c-17.3,21.7-19.9,52.9-39.1,72.9c-5.6,5.8-12.4,10.5-18.1,16.1v6.8h74.9
	c50-75.9,87.6-186.4,87.6-186.4C154.7,170.7,147.3,166.4,137.7,165.8z"/>
<rect x="51.7" y="223.2" class="st1" width="81.1" height="138.8"/>
<rect x="118" y="108.3" class="st1" width="81.1" height="142.4"/>
<polygon class="st1" points="-28.3,365.5 -28.3,226.2 -49,226.2 -49,366.6 -24.5,366.6 -24.5,365.5 "/>
<rect x="0.5" y="226.2" class="st1" width="108.4" height="135.7"/>
<path class="st2" d="M223.9,183c7,10.2,16.9,18.5,28.3,23.7c0.9,0.4,1.9,0.8,2.9,0.8c2,0,3.6-1.6,4.8-3.1c2.3-2.9,4.2-6.1,6-9.4
	c12.2-22.5,17.2-48.6,14.2-73.9c-0.1-1.1-0.3-2.4,0-3.5c0.2-0.9,0.7-1.7,1.2-2.5c2.1-3.3,4.2-6.5,6.3-9.8c5.6-8.8,1.9-19.6,4.8-29.5
	c1-3.4,2.7-6.8,2.9-10.3c0.1-1.1,0-2.2-0.6-3.2c-0.6-0.9-1.8-1.6-2.8-1.3c-0.6,0.2-1.1,0.6-1.6,1.1c-6.7,6.3-13.4,12.8-19.9,19.4
	c-3.3-2.9-6.7-5.7-10.3-8.1c-0.6-0.4-1.3-0.9-2-0.9c-1.4-0.1-2.5,1.2-2.7,2.5c-0.2,1.3,0.2,2.6,0.5,3.9c2.7,10.5,1.3,22.4,7.9,31.2
	c-6.6,11.9-12.6,24.5-18.1,37c-1.4-3-3.6-5.6-6.2-7.7c-0.4-0.3-0.9-0.6-1.4-0.5c-0.4,0.1-0.6,0.4-0.9,0.7
	c-7.3,8.8-14.9,18.4-15.9,29.7C220.9,173.9,221.2,179,223.9,183z"/>
<path class="st3" d="M250.3,132.5c-4.4,12.9-7.2,26.3-7.1,39.9"/>
<rect x="214.5" y="151.5" class="st1" width="70.1" height="70.3"/>
<path class="st4" d="M200.4,52.6c-1.8-7.8-4-15.9-9.5-21.7c-7.1-7.5-17.8-9.5-27.7-10.6c-11.5-1.3-20.8,3.1-30.9,8.2
	C109.5,39.9,85.5,49.2,61,56.1C48,59.8,34.3,63,23.9,71.6c-5.3,4.3-9.6,9.8-14.3,14.7c-2.9,3-6.1,5.8-9.4,8.4v57.5
	c9.4-3.1,18.3-7.6,26.4-13.4c-8.2,6.3-17.1,11.8-26.4,16.3v3c5.2,4.9,13,6.8,20.2,5.6c8.1-1.3,15.3-5.7,21.6-10.9
	c-5,4.6-10.4,8.8-16.1,12.5c6.5,6.4,15.9,9,25,9.8c9.1,0.9,18.3,0.3,27.3,1.7c6.1,0.9,12.1,2.7,18.3,2.7c8.8,0.1,17.3-3.4,24.8-8
	c23.2-14.2,38.1-38.4,57.3-57.7c8.5-8.5,18.3-16.7,22.3-28C204.8,75.2,202.9,63.5,200.4,52.6z"/>
<polygon class="st1" points="0.2,45.5 0.2,176.4 0.5,176.4 0.5,178.8 122,178.8 122,45.5 "/>
<rect x="43.2" y="0.4" class="st1" width="149.1" height="186.8"/>
<path class="st5" d="M87.8,292.5c2.4,9.8,3.3,20.4,9,28.9c3.6,5.4,8.9,9.5,11.9,15.2c3.9,7.7,2.8,16.9,0.7,25.4h66.8
	c-5.8-29.5-14-80.7-23.3-167c-0.9-8.1-0.3-16.4,1.7-24.3L120.9,154c-17.6,10.8-31.6,27.4-39.3,46.5c-7.7,19.2-9.1,40.8-3.8,60.7
	C80.6,271.8,85.2,281.9,87.8,292.5z"/>
<rect x="53.9" y="140.8" class="st1" width="151.8" height="221.2"/>
<path class="st2" d="M92.1,244.1c-0.4-2.8-2.1-5.3-3.2-7.8c-3.1-6.6-3.1-14.2-2.9-21.4c0.2-7.3,0.4-14.7,0.7-22
	c-1.2-1.6-2.7-1.3-4.7-1.3c-4.9,0-9.7-1.3-13.6-4.4c-2.4-1.9-4.6-4.1-7.5-5.3c-0.6,12.5-0.8,25.1-0.5,37.6c0,1.4,0.1,2.8-0.3,4.1
	c-0.8,2.8-2.8,4.9-2.9,7.8c-0.1,2.7,0.1,5.9,0.4,8.7c0.6,6.3,2.3,12.5,3.8,18.6c0.6,2.4,1.8,7.6,4.4,8.6c0.6,0.2,1.4,0.5,1.7,1.1
	c0.1,0.3,0.1,0.7,0.1,1c0,1.2,0.7,2.3,1.7,2.9c1.1,0.6,2.1,0,3,0.3c0.1,0,0.2,0.1,0.3,0.1c0,0.4,0.3,0.8,0.7,1
	c0.2,0.1,0.1-0.3,0.2,0.1c0.3,0.3,1.1,0.6,1.5,0.8c0.7,0.4,1.5,0.6,2.2,0.4c0.6-0.2,1.1-0.8,1.1-1.4c1.7,1.8,4,2.9,6.5,1.4
	c0.5-0.3,1-0.7,1.2-1.3c0.2-0.6,0.2-1.3,0.1-1.9c-0.4-3.4-0.4-6.4-1-9.7c0.1,0.2,0.4,0.2,0.6,0.2c0.3-0.1,0.5-0.5,0.6-0.8
	c1.2-2.7,2.4-5.4,3.6-8.1C91.3,250.4,92.6,247.3,92.1,244.1z M72.6,272.5L72.6,272.5L72.6,272.5C72.6,272.5,72.6,272.5,72.6,272.5z"
	/>
<rect x="37.4" y="175.6" class="st1" width="54.9" height="75.4"/>
<path class="st2" d="M155.3,45.5c-0.2,4.6,0.1,10.2,3.9,12.6c1.5,0.9,14.2,1.1,14.2,0.6c-0.4,3.4-0.7,6.7-1.1,10.1
	c-0.1,0.6-0.1,1.3,0.1,2c0.4,1.1,1.4,1.7,2.5,2.2c4.1,1.9,9.4,3.5,13.9,2.7c-1-5.6,0.9-11.1,1.6-16.5c0.7-5.2,2-10.4,2.4-15.7
	c0.4-4.4-0.7-9.3-4.4-11.8c-3.8-2.6-8.9-1.6-13.3-2.9c-5.3-1.5-8.6-7.4-14-8.6c-4.4-1-4,3.3-4.4,6.6c-0.6,5.3-1.1,10.6-1.4,15.9
	C155.4,43.4,155.3,44.4,155.3,45.5z"/>
<path class="st4" d="M157.4,19.1c-0.8,3.2-1.2,6.6-0.3,9.8c1.2,4.5,4.8,8.1,8.9,10.3c4.1,2.2,8.7,3.3,13.3,4.3
	c-0.7-2.4,0.8-5.2,3.2-5.8c2.4-0.6,5.1,1.1,5.4,3.6c0.4,3-2.6,5.4-5.4,6.6c-0.5,0.2-1,0.4-1.3,0.9c-0.2,0.3-0.3,0.6-0.3,0.9
	c-0.6,3.1-1,6.2,0.3,9.1c1.2,2.7,3.8,4,5.4,6.3c1.8,2.6,0.8,5.8,1.8,8.6c0.6,1.8,2.1,3.1,3.5,4.2c2.9,2.3,6.2,4.4,9.9,4.3
	c3-0.1,4.3-0.7,5.8-3.2c1.3-2.2,2.5-4.4,3.5-6.7c2-4.6,3.3-9.6,4-14.6c1.3-10.1-0.3-20.8-6.1-29.3c-6.7-9.8-18.4-15.4-30.3-16.4
	c-3.8-0.3-7.7-0.2-11.3,0.9C163.5,14.1,158.3,15.4,157.4,19.1z"/>
<rect x="171.7" class="st1" width="53.9" height="99.6"/>
<path class="st6" d="M245.6,138.3l-0.4-1.8c-6.4-10-12.2-20.4-17.1-31.2c-3-6.5-5.9-13.4-11.3-18c-3.1-2.6-6.8-4.3-10.5-5.9
	c-3.8-1.6-7.5-3.5-11.4-5c-1.9-0.7-4-1.6-4.4-3.5c-0.4-1.8,0.7-3.9-0.4-5.3c-0.8-1-2.4-1-3.7-0.6c-3.5,1-7.7,0.2-11-1.4
	c-1.1-0.5-2.5-1.2-3.5-0.4c-0.9,0.7-0.7,2.2-0.9,3.3c-0.4,2.1-2.4,3.5-4.5,3.9c-2.7,0.5-5.5-0.4-8.2-0.5c-3.1-0.1-6.1-0.3-9.2-0.5
	c-5.9-0.3-11.8-0.6-17.5,0.7c-4.8,1.1-9.3,3.3-13.6,5.8c-19.4,11-35.7,27.4-46.8,46.7c-11.1,19.4-16.8,41.7-16.5,64
	c7.6,4.2,16,7,24.4,9.4c6.4,1.8,13,3.7,19.5,2.5c-0.2-16.5,0.3-32.7,1.1-49.2c0.5,0.8,1.9,0.5,2.4-0.3c0.5-0.8,0.4-1.9,0.1-2.8
	c1.4,0.8,3-0.8,3.8-2.2c6.3-11.1,13-21.9,20-32.6c-0.8,4.5-1.6,8.8-1.3,13.4c0.3,4.1,1.2,8.2,1.5,12.3c0.2,2.7,0.2,5.5-0.4,8.2
	c-0.5,2.3-2.5,4.7-1.9,7c0.4,1.3,1.2,2.5,2.2,3.5c6.9,7.3,17.1,10.2,26.8,12.6c3.2,0.8,6.3,0.8,9.4,1.1c1.3,0.1,2.7-0.6,3.6-1.7
	c2.4-2.8,4.3-6.1,6.4-9.1c1.2-1.8,2.5-3.6,4.2-5c1.7-1.4,3.8-2.2,5.8-3.1c7.2-3.2,13.8-7.7,19.6-13c1.9-1.8,3.7-3.7,4.3-6.2
	c-1.5,7.8,1.5,15.7,2.9,23.6c0.9,5.1,1.1,10.4,2.3,15.4c1.3,5.5,3.5,13.7,8.2,17.2c0.4,0.3,0.8,0.6,1.3,0.5c0.4,0,0.8-0.3,1.1-0.6
	c6.9-6,12.1-15.3,16.4-23.2C242.2,158.9,247.5,147.1,245.6,138.3z"/>
<path class="st7" d="M276.8,111.9l-21.5-5.9c-1.6-0.4-2.6-2.1-2.1-3.7l12.9-47.5c0.4-1.6,2.1-2.6,3.7-2.1l21.5,5.9
	c1.6,0.4,2.6,2.1,2.1,3.7l-12.9,47.5C280,111.4,278.4,112.3,276.8,111.9z"/>
<path class="st0" d="M117.8,156c1.1,2.9,5.5,6.7,8,8.3c6.8,4.2,14.3,7.4,22.2,9.3c4,1,8,1.6,12.1,1.9c1.9,0.1,3,0.1,3,0.1
	s1.3-3.9,1.5-6.9c-6.5-0.2-11.9-2-17.9-4.2c-8.3-3.1-15.4-7.9-22.3-13.4L117.8,156z"/>
<path class="st6" d="M171.1,137.4c-2.5,0-4.5-2.1-4.5-4.5s2.1-4.5,4.5-4.5s4.5,2.1,4.5,4.5S173.6,137.4,171.1,137.4z"/>
<path class="st8" d="M171.1,129.1c2.1,0,3.7,1.6,3.7,3.7c0,2.1-1.6,3.7-3.7,3.7c-2.1,0-3.7-1.7-3.7-3.7
	C167.4,130.8,169.1,129.1,171.1,129.1z M171.1,127.4c-3,0-5.4,2.4-5.4,5.4c0,3,2.4,5.4,5.4,5.4c3,0,5.4-2.4,5.4-5.4
	C176.5,129.9,174.1,127.4,171.1,127.4z"/>
<path class="st6" d="M148.9,157.4c-2.5,0-4.5-2.1-4.5-4.5s2.1-4.5,4.5-4.5c2.5,0,4.5,2.1,4.5,4.5S151.4,157.4,148.9,157.4z"/>
<path class="st8" d="M148.9,149.1c2.1,0,3.7,1.6,3.7,3.7s-1.6,3.7-3.7,3.7c-2.1,0-3.7-1.6-3.7-3.7S146.8,149.1,148.9,149.1z
	 M148.9,147.5c-3,0-5.4,2.4-5.4,5.4c0,3,2.4,5.4,5.4,5.4c3,0,5.4-2.4,5.4-5.4C154.3,149.9,151.9,147.5,148.9,147.5z"/>
<path class="st6" d="M125.5,141.6c-2.5,0-4.5-2.1-4.5-4.5c0-2.5,2.1-4.5,4.5-4.5c2.5,0,4.5,2.1,4.5,4.5
	C130,139.6,128,141.6,125.5,141.6z"/>
<path class="st8" d="M125.5,133.4c2.1,0,3.7,1.6,3.7,3.7c0,2.1-1.7,3.7-3.7,3.7c-2.1,0-3.7-1.6-3.7-3.7
	C121.8,135,123.5,133.4,125.5,133.4z M125.5,131.7c-3,0-5.4,2.4-5.4,5.4c0,3,2.4,5.4,5.4,5.4c3,0,5.4-2.4,5.4-5.4
	C130.9,134.1,128.5,131.7,125.5,131.7z"/>
<path class="st6" d="M139.3,120.9c-2.5,0-4.5-2.1-4.5-4.5c0-2.5,2.1-4.5,4.5-4.5c2.5,0,4.5,2.1,4.5,4.5
	C143.9,118.9,141.9,120.9,139.3,120.9z"/>
<path class="st8" d="M139.3,112.7c2.1,0,3.7,1.6,3.7,3.7c0,2.1-1.6,3.7-3.7,3.7c-2.1,0-3.7-1.6-3.7-3.7
	C135.6,114.3,137.3,112.7,139.3,112.7z M139.3,111c-3,0-5.4,2.4-5.4,5.4c0,3,2.4,5.4,5.4,5.4c3,0,5.4-2.4,5.4-5.4
	C144.7,113.4,142.3,111,139.3,111z"/>
<path class="st6" d="M105.1,109.7c-2.5,0-4.5-2.1-4.5-4.5c0-2.5,2.1-4.5,4.5-4.5c2.5,0,4.5,2.1,4.5,4.5
	C109.7,107.6,107.7,109.7,105.1,109.7z"/>
<path class="st8" d="M105.1,101.4c2.1,0,3.7,1.6,3.7,3.7c0,2.1-1.7,3.7-3.7,3.7c-2.1,0-3.7-1.7-3.7-3.7
	C101.4,103.1,103.1,101.4,105.1,101.4z M105.1,99.7c-3,0-5.4,2.4-5.4,5.4c0,3,2.4,5.4,5.4,5.4c3,0,5.4-2.4,5.4-5.4
	C110.5,102.2,108.1,99.7,105.1,99.7z"/>
<path class="st6" d="M76,125c-2.5,0-4.5-2.1-4.5-4.5c0-2.5,2.1-4.5,4.5-4.5s4.5,2.1,4.5,4.5C80.6,123,78.6,125,76,125z"/>
<path class="st8" d="M76,116.8c2.1,0,3.7,1.7,3.7,3.7c0,2.1-1.6,3.7-3.7,3.7c-2.1,0-3.7-1.7-3.7-3.7C72.3,118.4,74,116.8,76,116.8z
	 M76,115.1c-3,0-5.4,2.4-5.4,5.4c0,3,2.4,5.4,5.4,5.4s5.4-2.4,5.4-5.4C81.4,117.5,79,115.1,76,115.1z"/>
<path class="st6" d="M85.9,160.9c-2.5,0-4.5-2.1-4.5-4.5c0-2.5,2.1-4.5,4.5-4.5c2.5,0,4.5,2.1,4.5,4.5
	C90.5,158.8,88.5,160.9,85.9,160.9z"/>
<path class="st8" d="M85.9,152.6c2.1,0,3.7,1.6,3.7,3.7c0,2.1-1.6,3.7-3.7,3.7c-2.1,0-3.7-1.7-3.7-3.7
	C82.2,154.3,83.9,152.6,85.9,152.6z M85.9,150.9c-3,0-5.4,2.4-5.4,5.4c0,3,2.4,5.4,5.4,5.4s5.4-2.4,5.4-5.4
	C91.3,153.4,88.9,150.9,85.9,150.9z"/>
<path class="st6" d="M58.7,155.6c-2.5,0-4.5-2.1-4.5-4.5s2.1-4.5,4.5-4.5s4.5,2.1,4.5,4.5S61.2,155.6,58.7,155.6z"/>
<path class="st8" d="M58.7,147.4c2.1,0,3.7,1.6,3.7,3.7c0,2.1-1.6,3.7-3.7,3.7c-2.1,0-3.7-1.7-3.7-3.7C55,149,56.6,147.4,58.7,147.4
	z M58.7,145.7c-3,0-5.4,2.4-5.4,5.4c0,3,2.4,5.4,5.4,5.4s5.4-2.4,5.4-5.4C64.1,148.1,61.6,145.7,58.7,145.7z"/>
<path class="st6" d="M69.4,180.1c-2.5,0-4.5-2.1-4.5-4.5s2.1-4.5,4.5-4.5c2.5,0,4.5,2.1,4.5,4.5S71.9,180.1,69.4,180.1z"/>
<path class="st8" d="M69.4,171.8c2.1,0,3.7,1.6,3.7,3.7c0,2.1-1.6,3.7-3.7,3.7c-2.1,0-3.7-1.6-3.7-3.7
	C65.7,173.5,67.4,171.8,69.4,171.8z M69.4,170.1c-3,0-5.4,2.4-5.4,5.4c0,3,2.4,5.4,5.4,5.4s5.4-2.4,5.4-5.4
	C74.8,172.5,72.4,170.1,69.4,170.1z"/>
<path class="st6" d="M82.5,202.1c-2.5,0-4.5-2.1-4.5-4.5c0-2.5,2.1-4.5,4.5-4.5c2.5,0,4.5,2.1,4.5,4.5
	C87.1,200.1,85,202.1,82.5,202.1z"/>
<path class="st8" d="M82.5,193.9c2.1,0,3.7,1.6,3.7,3.7c0,2.1-1.6,3.7-3.7,3.7c-2.1,0-3.7-1.6-3.7-3.7
	C78.8,195.5,80.5,193.9,82.5,193.9z M82.5,192.2c-3,0-5.4,2.4-5.4,5.4c0,3,2.4,5.4,5.4,5.4s5.4-2.4,5.4-5.4
	C87.9,194.6,85.5,192.2,82.5,192.2z"/>
<path class="st6" d="M98.6,185.5c-2.5,0-4.5-2.1-4.5-4.5c0-2.5,2.1-4.5,4.5-4.5c2.5,0,4.5,2.1,4.5,4.5
	C103.1,183.4,101.1,185.5,98.6,185.5z"/>
<path class="st8" d="M98.6,177.2c2.1,0,3.7,1.6,3.7,3.7c0,2.1-1.7,3.7-3.7,3.7c-2.1,0-3.7-1.6-3.7-3.7
	C94.9,178.9,96.5,177.2,98.6,177.2z M98.6,175.5c-3,0-5.4,2.4-5.4,5.4c0,3,2.4,5.4,5.4,5.4c3,0,5.4-2.4,5.4-5.4
	C104,178,101.6,175.5,98.6,175.5z"/>
<path class="st6" d="M92.2,138.5c-2.5,0-4.5-2.1-4.5-4.5c0-2.5,2.1-4.5,4.5-4.5c2.5,0,4.5,2.1,4.5,4.5
	C96.8,136.5,94.7,138.5,92.2,138.5z"/>
<path class="st8" d="M92.2,130.3c2.1,0,3.7,1.6,3.7,3.7c0,2.1-1.6,3.7-3.7,3.7c-2.1,0-3.7-1.6-3.7-3.7
	C88.5,131.9,90.2,130.3,92.2,130.3z M92.2,128.6c-3,0-5.4,2.4-5.4,5.4c0,3,2.4,5.4,5.4,5.4s5.4-2.4,5.4-5.4
	C97.6,131,95.2,128.6,92.2,128.6z"/>
<path class="st6" d="M178.6,157.4c-2.5,0-4.5-2.1-4.5-4.5s2.1-4.5,4.5-4.5c2.5,0,4.5,2.1,4.5,4.5S181.1,157.4,178.6,157.4z"/>
<path class="st8" d="M178.6,149.1c2.1,0,3.7,1.6,3.7,3.7s-1.6,3.7-3.7,3.7c-2.1,0-3.7-1.6-3.7-3.7S176.6,149.1,178.6,149.1z
	 M178.6,147.5c-3,0-5.4,2.4-5.4,5.4c0,3,2.4,5.4,5.4,5.4c3,0,5.4-2.4,5.4-5.4C184,149.9,181.6,147.5,178.6,147.5z"/>
<path class="st6" d="M208.5,149.3c-2.5,0-4.5-2.1-4.5-4.5c0-2.5,2.1-4.5,4.5-4.5c2.5,0,4.5,2.1,4.5,4.5
	C213.1,147.3,211,149.3,208.5,149.3z"/>
<path class="st8" d="M208.5,141.1c2.1,0,3.7,1.7,3.7,3.7c0,2.1-1.6,3.7-3.7,3.7c-2.1,0-3.7-1.7-3.7-3.7
	C204.8,142.7,206.5,141.1,208.5,141.1z M208.5,139.4c-3,0-5.4,2.4-5.4,5.4c0,3,2.4,5.4,5.4,5.4c3,0,5.4-2.4,5.4-5.4
	C213.9,141.8,211.5,139.4,208.5,139.4z"/>
<path class="st6" d="M228.1,158.5c-2.5,0-4.5-2.1-4.5-4.5c0-2.5,2.1-4.5,4.5-4.5s4.5,2.1,4.5,4.5
	C232.6,156.5,230.6,158.5,228.1,158.5z"/>
<path class="st8" d="M228.1,150.3c2.1,0,3.7,1.6,3.7,3.7c0,2.1-1.7,3.7-3.7,3.7c-2.1,0-3.7-1.7-3.7-3.7
	C224.4,151.9,226,150.3,228.1,150.3z M228.1,148.6c-3,0-5.4,2.4-5.4,5.4c0,3,2.4,5.4,5.4,5.4c3,0,5.4-2.4,5.4-5.4
	C233.5,151,231,148.6,228.1,148.6z"/>
<path class="st6" d="M215.8,182.6c-2.5,0-4.5-2.1-4.5-4.5c0-2.5,2.1-4.5,4.5-4.5s4.5,2.1,4.5,4.5
	C220.3,180.6,218.2,182.6,215.8,182.6z"/>
<path class="st8" d="M215.8,174.4c2.1,0,3.7,1.7,3.7,3.7c0,2.1-1.7,3.7-3.7,3.7c-2.1,0-3.7-1.6-3.7-3.7
	C212,176.1,213.7,174.4,215.8,174.4z M215.8,172.7c-3,0-5.4,2.4-5.4,5.4c0,3,2.4,5.4,5.4,5.4c3,0,5.4-2.4,5.4-5.4
	C221.1,175.1,218.7,172.7,215.8,172.7z"/>
<path class="st6" d="M243.6,155.6c-2.5,0-4.5-2.1-4.5-4.5s2.1-4.5,4.5-4.5c2.5,0,4.5,2.1,4.5,4.5S246.1,155.6,243.6,155.6z"/>
<path class="st8" d="M243.6,147.4c2.1,0,3.7,1.6,3.7,3.7c0,2.1-1.7,3.7-3.7,3.7c-2.1,0-3.7-1.7-3.7-3.7
	C239.9,149,241.6,147.4,243.6,147.4z M243.6,145.7c-3,0-5.4,2.4-5.4,5.4c0,3,2.4,5.4,5.4,5.4c3,0,5.4-2.4,5.4-5.4
	C249,148.1,246.6,145.7,243.6,145.7z"/>
<path class="st6" d="M233.5,125c-2.5,0-4.5-2.1-4.5-4.5c0-2.5,2.1-4.5,4.5-4.5s4.5,2.1,4.5,4.5C238,123,235.9,125,233.5,125z"/>
<path class="st8" d="M233.5,116.8c2.1,0,3.7,1.7,3.7,3.7c0,2.1-1.6,3.7-3.7,3.7c-2.1,0-3.7-1.7-3.7-3.7
	C229.8,118.4,231.4,116.8,233.5,116.8z M233.5,115.1c-3,0-5.4,2.4-5.4,5.4c0,3,2.4,5.4,5.4,5.4c3,0,5.4-2.4,5.4-5.4
	C238.8,117.5,236.4,115.1,233.5,115.1z"/>
<path class="st6" d="M223.5,102c-2.5,0-4.5-2.1-4.5-4.5c0-2.5,2.1-4.5,4.5-4.5s4.5,2.1,4.5,4.5C228.1,100,226.1,102,223.5,102z"/>
<path class="st8" d="M223.5,93.8c2.1,0,3.7,1.6,3.7,3.7c0,2.1-1.6,3.7-3.7,3.7c-2.1,0-3.7-1.6-3.7-3.7
	C219.8,95.4,221.5,93.8,223.5,93.8z M223.5,92.1c-3,0-5.4,2.4-5.4,5.4c0,3,2.4,5.4,5.4,5.4c3,0,5.4-2.4,5.4-5.4
	C228.9,94.5,226.5,92.1,223.5,92.1z"/>
<path class="st6" d="M205.9,115.1c-2.5,0-4.5-2.1-4.5-4.5c0-2.5,2.1-4.5,4.5-4.5c2.5,0,4.5,2.1,4.5,4.5
	C210.4,113,208.4,115.1,205.9,115.1z"/>
<path class="st8" d="M205.9,106.8c2.1,0,3.7,1.7,3.7,3.7c0,2.1-1.6,3.7-3.7,3.7c-2.1,0-3.7-1.7-3.7-3.7
	C202.1,108.5,203.8,106.8,205.9,106.8z M205.9,105.1c-3,0-5.4,2.4-5.4,5.4c0,3,2.4,5.4,5.4,5.4c3,0,5.4-2.4,5.4-5.4
	C211.2,107.6,208.8,105.1,205.9,105.1z"/>
<path class="st6" d="M190.3,127.8c-2.5,0-4.5-2.1-4.5-4.5c0-2.5,2.1-4.5,4.5-4.5c2.5,0,4.5,2.1,4.5,4.5
	C194.8,125.7,192.8,127.8,190.3,127.8z"/>
<path class="st8" d="M190.3,119.5c2.1,0,3.7,1.7,3.7,3.7c0,2.1-1.6,3.7-3.7,3.7c-2.1,0-3.7-1.7-3.7-3.7
	C186.6,121.2,188.2,119.5,190.3,119.5z M190.3,117.8c-3,0-5.4,2.4-5.4,5.4c0,3,2.4,5.4,5.4,5.4c3,0,5.4-2.4,5.4-5.4
	C195.7,120.2,193.2,117.8,190.3,117.8z"/>
<path class="st6" d="M182.4,96.6c-2.5,0-4.5-2.1-4.5-4.5c0-2.5,2.1-4.5,4.5-4.5s4.5,2.1,4.5,4.5C186.9,94.6,184.9,96.6,182.4,96.6z"
	/>
<path class="st8" d="M182.4,88.4c2.1,0,3.7,1.6,3.7,3.7c0,2.1-1.6,3.7-3.7,3.7s-3.7-1.6-3.7-3.7C178.7,90,180.4,88.4,182.4,88.4z
	 M182.4,86.7c-3,0-5.4,2.4-5.4,5.4c0,3,2.4,5.4,5.4,5.4c3,0,5.4-2.4,5.4-5.4C187.8,89.1,185.4,86.7,182.4,86.7z"/>
<path class="st6" d="M171.1,109.7c-2.5,0-4.5-2.1-4.5-4.5c0-2.5,2.1-4.5,4.5-4.5s4.5,2.1,4.5,4.5
	C175.7,107.6,173.6,109.7,171.1,109.7z"/>
<path class="st8" d="M171.1,101.4c2.1,0,3.7,1.6,3.7,3.7c0,2.1-1.6,3.7-3.7,3.7c-2.1,0-3.7-1.7-3.7-3.7
	C167.4,103.1,169.1,101.4,171.1,101.4z M171.1,99.7c-3,0-5.4,2.4-5.4,5.4c0,3,2.4,5.4,5.4,5.4c3,0,5.4-2.4,5.4-5.4
	C176.5,102.2,174.1,99.7,171.1,99.7z"/>
<path class="st6" d="M159.7,93.6c-2.5,0-4.5-2.1-4.5-4.5c0-2.5,2.1-4.5,4.5-4.5s4.5,2.1,4.5,4.5C164.2,91.5,162.2,93.6,159.7,93.6z"
	/>
<path class="st8" d="M159.7,85.4c2.1,0,3.7,1.6,3.7,3.7c0,2.1-1.6,3.7-3.7,3.7c-2.1,0-3.7-1.6-3.7-3.7C156,87,157.6,85.4,159.7,85.4
	z M159.7,83.7c-3,0-5.4,2.4-5.4,5.4c0,3,2.4,5.4,5.4,5.4c3,0,5.4-2.4,5.4-5.4C165.1,86.1,162.6,83.7,159.7,83.7z"/>
<path class="st6" d="M128.6,80.2c-2.5,0-4.5-2.1-4.5-4.5c0-2.5,2.1-4.5,4.5-4.5s4.5,2.1,4.5,4.5C133.1,78.2,131.1,80.2,128.6,80.2z"
	/>
<path class="st8" d="M128.6,72c2.1,0,3.7,1.6,3.7,3.7c0,2.1-1.6,3.7-3.7,3.7c-2.1,0-3.7-1.6-3.7-3.7C124.9,73.6,126.5,72,128.6,72z
	 M128.6,70.3c-3,0-5.4,2.4-5.4,5.4s2.4,5.4,5.4,5.4c3,0,5.4-2.4,5.4-5.4S131.6,70.3,128.6,70.3z"/>
<path class="st6" d="M141.5,100.1c-2.5,0-4.5-2.1-4.5-4.5c0-2.5,2.1-4.5,4.5-4.5c2.5,0,4.5,2.1,4.5,4.5
	C146,98,143.9,100.1,141.5,100.1z"/>
<path class="st8" d="M141.5,91.8c2.1,0,3.7,1.6,3.7,3.7c0,2.1-1.6,3.7-3.7,3.7c-2.1,0-3.7-1.6-3.7-3.7
	C137.7,93.5,139.4,91.8,141.5,91.8z M141.5,90.1c-3,0-5.4,2.4-5.4,5.4c0,3,2.4,5.4,5.4,5.4c3,0,5.4-2.4,5.4-5.4
	C146.8,92.6,144.4,90.1,141.5,90.1z"/>
<path class="st6" d="M159.7,122.4c-2.5,0-4.5-2.1-4.5-4.5c0-2.5,2.1-4.5,4.5-4.5s4.5,2.1,4.5,4.5
	C164.2,120.3,162.2,122.4,159.7,122.4z"/>
<path class="st8" d="M159.7,114.1c2.1,0,3.7,1.6,3.7,3.7s-1.6,3.7-3.7,3.7c-2.1,0-3.7-1.6-3.7-3.7
	C156,115.8,157.6,114.1,159.7,114.1z M159.7,112.4c-3,0-5.4,2.4-5.4,5.4c0,3,2.4,5.4,5.4,5.4c3,0,5.4-2.4,5.4-5.4
	C165.1,114.8,162.6,112.4,159.7,112.4z"/>
<path class="st6" d="M195.7,82.8c-2.5,0-4.5-2.1-4.5-4.5c0-2.5,2.1-4.5,4.5-4.5c2.5,0,4.5,2.1,4.5,4.5
	C200.2,80.8,198.1,82.8,195.7,82.8z"/>
<path class="st8" d="M195.7,74.6c2.1,0,3.7,1.6,3.7,3.7c0,2.1-1.6,3.7-3.7,3.7c-2.1,0-3.7-1.6-3.7-3.7
	C191.9,76.2,193.6,74.6,195.7,74.6z M195.7,72.9c-3,0-5.4,2.4-5.4,5.4s2.4,5.4,5.4,5.4c3,0,5.4-2.4,5.4-5.4S198.6,72.9,195.7,72.9z"
	/>
<path class="st6" d="M219.3,134.5c-1.1,0-2.1-0.4-2.9-1.1c-1.9-1.6-2.2-4.5-0.5-6.4c0.9-1,2.1-1.6,3.5-1.6c1.1,0,2.1,0.4,2.9,1.1
	c1.9,1.6,2.2,4.5,0.5,6.4C221.8,133.9,220.6,134.5,219.3,134.5z"/>
<path class="st8" d="M219.3,126.2c0.9,0,1.7,0.3,2.4,0.9c0.7,0.6,1.2,1.5,1.3,2.5c0.1,1-0.2,2-0.9,2.7c-0.7,0.8-1.8,1.3-2.8,1.3
	c-0.9,0-1.7-0.3-2.4-0.9c-1.5-1.3-1.8-3.7-0.4-5.2C217.1,126.7,218.1,126.2,219.3,126.2z M219.3,124.5c-1.5,0-3,0.6-4.1,1.9
	c-1.9,2.3-1.6,5.7,0.6,7.6c1,0.9,2.3,1.3,3.5,1.3c1.5,0,3-0.6,4.1-1.9c1.9-2.3,1.6-5.7-0.6-7.6C221.7,124.9,220.5,124.5,219.3,124.5
	z"/>
<path class="st6" d="M112.4,133.2c-2.5,0-4.5-2.1-4.5-4.5c0-2.5,2.1-4.5,4.5-4.5c2.5,0,4.5,2.1,4.5,4.5
	C116.9,131.1,114.9,133.2,112.4,133.2z"/>
<path class="st8" d="M112.4,124.9c2.1,0,3.7,1.7,3.7,3.7c0,2.1-1.6,3.7-3.7,3.7c-2.1,0-3.7-1.6-3.7-3.7
	C108.7,126.6,110.3,124.9,112.4,124.9z M112.4,123.2c-3,0-5.4,2.4-5.4,5.4c0,3,2.4,5.4,5.4,5.4c3,0,5.4-2.4,5.4-5.4
	C117.8,125.7,115.4,123.2,112.4,123.2z"/>
<path class="st2" d="M290.7,70.1c-5,0.4-10,0.9-15,1.4c-0.9,0.1-1.8,0.2-2.5,0.8c-1.5,1.2-0.8,3.9,0.8,5c1.6,1.1,3.8,1,5.8,0.9
	c2.7-0.2,5.4-0.3,8.1-0.5c-5.7,1.6-11.3,3.2-16.9,4.8c-0.3,0.1-0.7,0.2-0.8,0.5c-0.2,0.3-0.1,0.6,0,0.9c0.3,1.4,0.7,3,2,3.8
	c0.8,0.5,1.8,0.5,2.8,0.6c4.6,0.1,9.2,0.1,13.7-0.1c-7.4,2.9-14.6,6.3-21.5,10.1c-0.3,1.2,0.6,2.4,1.7,2.9c1.1,0.5,2.4,0.4,3.6,0.4
	c4.5-0.3,9.1-0.9,13.6-1.8c0.5-0.1,1-0.2,1.5-0.5c0.4-0.3,0.7-0.8,0.9-1.2C289.9,95.1,297.4,69.5,290.7,70.1z"/>
<path class="st0" d="M163,80.4c0-3.4-0.1-9.2-4.9-11c-0.8-0.3-1.7-0.4-2.7-0.2c-0.9,0.1-1.7,0.4-2.2,0.8c-0.6,0.4-1,0.9-1.2,1.5
	l2.2,0.1c0,0,0.1-0.1,0.1-0.1c0.3-0.2,0.8-0.4,1.4-0.4c0.7-0.1,1.3,0,1.8,0.1c3.3,1.2,3.6,5.1,3.7,9.2c0.1,12.8,0.2,27.3-5.3,39.1
	c-2.6,5.5-6.6,10.1-10.5,14.6c-2.7,3.1-5.5,6.2-7.8,9.7c-4,6-6.3,12-6.8,17.8l1.9,0.2c0.5-5.5,2.7-11.2,6.5-16.9
	c2.3-3.4,5-6.5,7.6-9.5c4-4.5,8.1-9.3,10.8-15C163.2,108.2,163.1,93.4,163,80.4z"/>
<path class="st0" d="M211.2,82.5c-0.7-1.3-2.1-2.3-3.6-2.6c-1.1-0.2-2.3,0-3.2,0.6l2.8,1.2c0,0,0.1,0,0.1,0c0.9,0.2,1.8,0.8,2.3,1.6
	c3.1,5.8,1.5,12.4,0,18.8c-0.2,0.9-0.4,1.9-0.6,2.7c-2.1,9.2-4.3,16.7-6.9,23.5c-4.7,12.1-10.4,23.9-20.7,28.6
	c-2.5,1.1-5.1,2-7.6,2.9c-4.4,1.5-9,3.1-13,6c-1.1,0.8-2.7,2.2-3.1,4.1l1.9,0.3c0.2-1,0.9-1.9,2.3-2.9c3.8-2.8,8-4.2,12.5-5.7
	c2.6-0.9,5.3-1.8,7.8-3c10.8-5,16.8-17.2,21.6-29.6c2.7-7,4.9-14.5,7-23.8c0.2-0.9,0.4-1.8,0.6-2.7
	C212.9,96.1,214.7,88.9,211.2,82.5z"/>
<path class="st9" d="M83.3,249.4c1.4,6.4,2.7,13,4.2,21.1"/>
<path class="st10" d="M75.7,254.5c1.3,7.4,2.6,14.8,3.9,22.3"/>
<path class="st10" d="M69.9,253.6c1.1,7.4,2.2,15.5,3.1,21.7"/>
<path class="st10" d="M63.8,251.8c0.9,6.6,2,13.1,3.2,19.7"/>
<path class="st0" d="M162.8,48.6c0.3-0.1,0.7-0.2,1-0.2c0.2,0,0.3,0,0.4,0.1c0.2,0.2,0.3,0.5,0.3,0.8c-0.1,1.7-1.2,3.3-2.7,4.1
	c-1.2,0.6-3.9-1.5-3.2-2.9c0.1-0.3,0.5-0.5,0.8-0.5c0.1,0,0.3,0,0.4,0c0.6,0.1,1.2-0.1,1.6-0.5C161.8,49.1,162.3,48.8,162.8,48.6z"
	/>
<rect x="128" y="53.4" class="st1" width="108.1" height="133"/>
</svg>
